HIERARCHY
ROOT Hips
{
    OFFSET   0.000000   0.000000   0.000000
    CHANNELS 6 Xposition Yposition Zposition Zrotation Xrotation Yrotation
    JOINT Chest
    {
        OFFSET   0.000000   8.007230   0.000000
        CHANNELS 3 Zrotation Xrotation Yrotation
        JOINT Chest2
        {
            OFFSET   0.000000  22.077100   0.000000
            CHANNELS 3 Zrotation Xrotation Yrotation
            JOINT Neck
            {
                OFFSET   0.000000  23.254800  -0.000021
                CHANNELS 3 Zrotation Xrotation Yrotation
                JOINT Head
                {
                    OFFSET   0.000000  14.370000   1.956610
                    CHANNELS 3 Zrotation Xrotation Yrotation
                    End Site
                    {
                        OFFSET   0.000000  19.566000   0.000000
                    }
                }
            }
            JOINT LeftCollar
            {
                OFFSET   3.911900  19.017000  -0.467063
                CHANNELS 3 Zrotation Xrotation Yrotation
                JOINT LeftShoulder
                {
                    OFFSET  10.383700   0.000000   0.000000
                    CHANNELS 3 Zrotation Xrotation Yrotation
                    JOINT LeftElbow
                    {
                        OFFSET  26.662100   0.001529   0.000325
                        CHANNELS 3 Zrotation Xrotation Yrotation
                        JOINT LeftWrist
                        {
                            OFFSET  28.869000  -0.000011  -0.000096
                            CHANNELS 3 Zrotation Xrotation Yrotation
                            JOINT LeftFinger0
                            {
                                OFFSET   2.044650  -2.323460   3.252850
                                CHANNELS 3 Zrotation Xrotation Yrotation
                                JOINT LeftFinger01
                                {
                                    OFFSET   3.088130   0.000000   0.000000
                                    CHANNELS 3 Zrotation Xrotation Yrotation
                                    JOINT LeftFinger02
                                    {
                                        OFFSET   2.639460   0.000000   0.000000
                                        CHANNELS 3 Zrotation Xrotation Yrotation
                                        End Site
                                        {
                                            OFFSET   2.582190   0.000000   0.000000
                                        }
                                    }
                                }
                            }
                            JOINT LeftFinger1
                            {
                                OFFSET   8.364480   0.000000   3.252850
                                CHANNELS 3 Zrotation Xrotation Yrotation
                                JOINT LeftFinger11
                                {
                                    OFFSET   4.646930   0.000000   0.000000
                                    CHANNELS 3 Zrotation Xrotation Yrotation
                                    JOINT LeftFinger12
                                    {
                                        OFFSET   2.323460   0.000000   0.000000
                                        CHANNELS 3 Zrotation Xrotation Yrotation
                                        End Site
                                        {
                                            OFFSET   2.273050   0.000000   0.000000
                                        }
                                    }
                                }
                            }
                            JOINT LeftFinger2
                            {
                                OFFSET   8.364480   0.000016   1.078090
                                CHANNELS 3 Zrotation Xrotation Yrotation
                                JOINT LeftFinger21
                                {
                                    OFFSET   5.111620   0.000000   0.000000
                                    CHANNELS 3 Zrotation Xrotation Yrotation
                                    JOINT LeftFinger22
                                    {
                                        OFFSET   2.788160   0.000017   0.000000
                                        CHANNELS 3 Zrotation Xrotation Yrotation
                                        End Site
                                        {
                                            OFFSET   2.727660   0.000000   0.000000
                                        }
                                    }
                                }
                            }
                            JOINT LeftFinger3
                            {
                                OFFSET   7.899780   0.000015  -1.078090
                                CHANNELS 3 Zrotation Xrotation Yrotation
                                JOINT LeftFinger31
                                {
                                    OFFSET   4.646920   0.000000   0.000000
                                    CHANNELS 3 Zrotation Xrotation Yrotation
                                    JOINT LeftFinger32
                                    {
                                        OFFSET   2.323470   0.000000   0.000000
                                        CHANNELS 3 Zrotation Xrotation Yrotation
                                        End Site
                                        {
                                            OFFSET   2.273050   0.000000   0.000000
                                        }
                                    }
                                }
                            }
                            JOINT LeftFinger4
                            {
                                OFFSET   7.435090   0.000000  -3.252850
                                CHANNELS 3 Zrotation Xrotation Yrotation
                                JOINT LeftFinger41
                                {
                                    OFFSET   3.717550   0.000000   0.000000
                                    CHANNELS 3 Zrotation Xrotation Yrotation
                                    JOINT LeftFinger42
                                    {
                                        OFFSET   1.858760   0.000000   0.000000
                                        CHANNELS 3 Zrotation Xrotation Yrotation
                                        End Site
                                        {
                                            OFFSET   1.818440   0.000000   0.000000
                                        }
                                    }
                                }
                            }
                        }
                    }
                }
            }
            JOINT RightCollar
            {
                OFFSET  -3.911900  19.017000  -0.467062
                CHANNELS 3 Zrotation Xrotation Yrotation
                JOINT RightShoulder
                {
                    OFFSET -10.383700   0.000015   0.000000
                    CHANNELS 3 Zrotation Xrotation Yrotation
                    JOINT RightElbow
                    {
                        OFFSET -26.662100   0.001341   0.000385
                        CHANNELS 3 Zrotation Xrotation Yrotation
                        JOINT RightWrist
                        {
                            OFFSET -28.869000   0.000025  -0.000080
                            CHANNELS 3 Zrotation Xrotation Yrotation
                            JOINT RightFinger0
                            {
                                OFFSET  -2.044650  -2.323490   3.252850
                                CHANNELS 3 Zrotation Xrotation Yrotation
                                JOINT RightFinger01
                                {
                                    OFFSET  -3.088130   0.000000   0.000000
                                    CHANNELS 3 Zrotation Xrotation Yrotation
                                    JOINT RightFinger02
                                    {
                                        OFFSET  -2.639460   0.000000   0.000000
                                        CHANNELS 3 Zrotation Xrotation Yrotation
                                        End Site
                                        {
                                            OFFSET  -2.582190   0.000000   0.000000
                                        }
                                    }
                                }
                            }
                            JOINT RightFinger1
                            {
                                OFFSET  -8.364480   0.000000   3.252850
                                CHANNELS 3 Zrotation Xrotation Yrotation
                                JOINT RightFinger11
                                {
                                    OFFSET  -4.646930   0.000000   0.000000
                                    CHANNELS 3 Zrotation Xrotation Yrotation
                                    JOINT RightFinger12
                                    {
                                        OFFSET  -2.323470   0.000000   0.000000
                                        CHANNELS 3 Zrotation Xrotation Yrotation
                                        End Site
                                        {
                                            OFFSET  -2.273050   0.000000   0.000000
                                        }
                                    }
                                }
                            }
                            JOINT RightFinger2
                            {
                                OFFSET  -8.364480   0.000000   1.078090
                                CHANNELS 3 Zrotation Xrotation Yrotation
                                JOINT RightFinger21
                                {
                                    OFFSET  -5.111610   0.000000   0.000000
                                    CHANNELS 3 Zrotation Xrotation Yrotation
                                    JOINT RightFinger22
                                    {
                                        OFFSET  -2.788160   0.000000   0.000000
                                        CHANNELS 3 Zrotation Xrotation Yrotation
                                        End Site
                                        {
                                            OFFSET  -2.727660   0.000000   0.000000
                                        }
                                    }
                                }
                            }
                            JOINT RightFinger3
                            {
                                OFFSET  -7.899780   0.000000  -1.078090
                                CHANNELS 3 Zrotation Xrotation Yrotation
                                JOINT RightFinger31
                                {
                                    OFFSET  -4.646920   0.000000   0.000000
                                    CHANNELS 3 Zrotation Xrotation Yrotation
                                    JOINT RightFinger32
                                    {
                                        OFFSET  -2.323470   0.000000   0.000000
                                        CHANNELS 3 Zrotation Xrotation Yrotation
                                        End Site
                                        {
                                            OFFSET  -2.273050   0.000000   0.000000
                                        }
                                    }
                                }
                            }
                            JOINT RightFinger4
                            {
                                OFFSET  -7.435090   0.000000  -3.252850
                                CHANNELS 3 Zrotation Xrotation Yrotation
                                JOINT RightFinger41
                                {
                                    OFFSET  -3.717550   0.000000   0.000000
                                    CHANNELS 3 Zrotation Xrotation Yrotation
                                    JOINT RightFinger42
                                    {
                                        OFFSET  -1.858770   0.000000   0.000000
                                        CHANNELS 3 Zrotation Xrotation Yrotation
                                        End Site
                                        {
                                            OFFSET  -1.818440   0.000000   0.000000
                                        }
                                    }
                                }
                            }
                        }
                    }
                }
            }
        }
    }
    JOINT LeftHip
    {
        OFFSET   9.783010   0.000000   0.000000
        CHANNELS 3 Zrotation Xrotation Yrotation
        JOINT LeftKnee
        {
            OFFSET   0.000070 -41.789100   0.000028
            CHANNELS 3 Zrotation Xrotation Yrotation
            JOINT LeftAnkle
            {
                OFFSET   0.000087 -41.133200  -0.000100
                CHANNELS 3 Zrotation Xrotation Yrotation
                JOINT LeftToe
                {
                    OFFSET   0.000000  -6.358960  14.674500
                    CHANNELS 3 Zrotation Xrotation Yrotation
                    End Site
                    {
                        OFFSET   0.000000   0.000000   3.913200
                    }
                }
            }
        }
    }
    JOINT RightHip
    {
        OFFSET  -9.783020   0.000000   0.000000
        CHANNELS 3 Zrotation Xrotation Yrotation
        JOINT RightKnee
        {
            OFFSET   0.000044 -41.789100  -0.000870
            CHANNELS 3 Zrotation Xrotation Yrotation
            JOINT RightAnkle
            {
                OFFSET  -0.000090 -41.133200  -0.000245
                CHANNELS 3 Zrotation Xrotation Yrotation
                JOINT RightToe
                {
                    OFFSET   0.000000  -6.358960  14.674500
                    CHANNELS 3 Zrotation Xrotation Yrotation
                    End Site
                    {
                        OFFSET   0.000000   0.000000   3.913200
                    }
                }
            }
        }
    }
}
MOTION
Frames: 4
Frame Time:   0.016667
 -0.770009  89.660100  -2.740060  -1.263050  -6.350730  -1.717860   0.990780   5.304890  -0.664396   2.056870  10.597000  -1.430530  -1.044290  -0.168965  -0.010745  -1.711940  -0.342146   4.161290  -4.999900   2.039480  10.266300 -79.512700   8.318270  -2.587400   0.518771   2.005770 -17.066300   9.758090  -8.125770  -3.937940  48.156600  40.573500 -62.397500 -27.974700  -0.002066  -0.000000  -8.987370  -0.000867  -0.000000 -34.410700   1.308700  -1.909680 -28.172000   0.011343  -0.001479 -19.720400  -0.006304   0.000000 -32.813800   1.254950  -1.945390 -49.252700  -0.002356  -0.000884 -32.802300   0.004227  -0.001331 -28.448500  -3.993070   7.324960 -39.075600   0.001884   0.001337 -26.024300  -0.001427   0.001072 -34.176100  -6.925170  10.069500 -52.180300   0.000130   0.000074 -34.752100  -0.000195   0.000452   5.091750   1.911380  10.280100  69.999200  -1.185580  -4.454990   3.298940  -2.450880  19.608600 -18.722300  -5.081910   4.671350 -40.593500  36.788000  76.760600  27.734700   0.005560  -0.002864   8.867380  -0.000698  -0.000583  35.972100   0.731162   1.007760  29.437800  -0.007558  -0.000804  20.606400  -0.002159   0.006735  28.777000  -1.058350  -1.925350  42.813800   0.012795   0.001443  28.514000  -0.000198   0.000629  29.830300  -3.346550  -5.811330  45.002200   0.001862   0.000293  29.971500   0.001216  -0.002602  40.969400  -4.407000  -5.055710  61.748100  -0.001272   0.001755  41.124200  -0.009304   0.001419   2.699210   5.413600   0.005204   0.574427   1.595300  10.781200  -2.028810  -0.721976  -1.376200   0.000000   0.000000   0.000000   1.549040   3.411200  -0.624749  -1.318070   6.817910 -12.117400   0.583338  -9.421880  -0.638141   0.000000   0.000000   0.000000
 -0.777657  89.659900  -2.741420  -1.263600  -6.368980  -1.717920   0.990779   5.323730  -0.664297   2.057060  10.634700  -1.430570  -1.038340  -0.200503  -0.010705  -1.703980  -0.406051   4.137920  -5.007190   2.011050  10.263400 -79.503400   8.348940  -2.598370   0.510030   1.994480 -17.068800   9.740240  -8.110160  -3.937790  48.161700  40.600800 -62.438200 -27.994300  -0.002081  -0.000011  -8.997150  -0.000871  -0.000000 -34.423300   1.297140  -1.891940 -28.182100   0.011362  -0.001482 -19.727400  -0.006310   0.000000 -32.814500   1.243580  -1.927550 -49.252900  -0.002345  -0.000864 -32.802500   0.004228  -0.001316 -28.445700  -4.004230   7.345160 -39.090100   0.001884   0.001344 -26.033900  -0.001421   0.001076 -34.184900  -6.937280  10.081900 -52.196000   0.000133   0.000074 -34.762500  -0.000200   0.000459   5.121860   1.862960  10.327000  70.037900  -1.175860  -4.532490   3.260610  -2.499170  19.790500 -18.625100  -5.247310   4.576300 -40.424300  36.594200  76.446300  27.861700   0.005581  -0.002895   8.930850  -0.000702  -0.000661  35.955500   0.685667   0.946538  29.425000  -0.007551  -0.000802  20.597500  -0.002150   0.006736  28.776200  -1.071480  -1.948490  42.732300   0.012839   0.001448  28.459700  -0.000188   0.000629  29.803400  -3.384330  -5.881340  44.969600   0.001868   0.000295  29.949800   0.001267  -0.002595  40.938300  -4.457180  -5.117270  61.710200  -0.001265   0.001754  41.099000  -0.009317   0.001416   2.699160   5.430040   0.005257   0.572622   1.600900  10.781100  -2.033100  -0.725747  -1.376450  -0.000000   0.000000   0.000000   1.559850   3.418690  -0.617851  -1.325060   6.846930 -12.107100   0.570791  -9.498780  -0.662493   0.000000   0.000000   0.000000
 -0.789991  89.659700  -2.745000  -1.264660  -6.404030  -1.718040   0.990948   5.362940  -0.663504   2.058130  10.713100  -1.429990  -1.028300  -0.262644  -0.010633  -1.690050  -0.531964   4.086230  -5.020360   1.954160  10.244400 -79.488000   8.397000  -2.619300   0.493580   1.978420 -17.074700   9.716320  -8.081630  -3.937520  48.187700  40.642000 -62.491600 -28.021800  -0.002113  -0.000062  -9.010890  -0.000884   0.000000 -34.436200   1.279770  -1.865730 -28.192100   0.011410  -0.001488 -19.734500  -0.006330  -0.000000 -32.815100   1.226490  -1.901170 -49.253200  -0.002315  -0.000813 -32.802600   0.004229  -0.001277 -28.442100  -4.018700   7.371970 -39.104600   0.001886   0.001363 -26.043600  -0.001402   0.001088 -34.193000  -6.950420  10.098900 -52.211800   0.000141   0.000069 -34.773000  -0.000220   0.000487   5.177380   1.746850  10.373500  70.074500  -1.165970  -4.710200   3.217400  -2.575860  20.221700 -18.376300  -5.730070   4.327750 -40.045700  36.174800  75.870500  28.100400   0.005631  -0.002948   9.050200  -0.000711  -0.000739  35.930300   0.578418   0.800623  29.404700  -0.007536  -0.000800  20.583300  -0.002123   0.006740  28.773600  -1.112450  -2.022300  42.527600   0.012931   0.001459  28.323400  -0.000163   0.000627  29.733600  -3.465710  -6.037160  44.880700   0.001882   0.000300  29.890600   0.001317  -0.002576  40.854100  -4.565760  -5.255540  61.601800  -0.001248   0.001752  41.026800  -0.009353   0.001408   2.698880   5.459080   0.005310   0.569072   1.615670  10.781100  -2.040900  -0.734652  -1.376710  -0.000000   0.000000  -0.000000   1.576610   3.431920  -0.600468  -1.337130   6.898990 -12.089600   0.547104  -9.613900  -0.710747  -0.000000   0.000000  -0.000000
 -0.799130  89.661000  -2.750380  -1.262950  -6.440510  -1.720800   0.990825   5.409300  -0.654513   2.057820  10.806000  -1.413030  -1.019630  -0.331511  -0.010545  -1.677040  -0.671494   4.019230  -5.034230   1.890540  10.198400 -79.474700   8.426780  -2.640960   0.476178   1.972950 -17.085900   9.709700  -8.051930  -3.935360  48.211700  40.667400 -62.500900 -28.031600  -0.002149  -0.000172  -9.015760  -0.000908  -0.000066 -34.423200   1.270050  -1.852360 -28.181100   0.011488  -0.001495 -19.726800  -0.006364   0.000000 -32.802500   1.217020  -1.887600 -49.234100  -0.002267  -0.000736 -32.789900   0.004227  -0.001218 -28.441400  -4.021730   7.378060 -39.087400   0.001888   0.001393 -26.032200  -0.001373   0.001106 -34.186700  -6.951350  10.104000 -52.203200   0.000154   0.000032 -34.767300  -0.000265   0.000550   5.236930   1.580840  10.362000  70.066000  -1.188640  -4.948870   3.230210  -2.628360  20.801300 -18.044200  -6.492060   3.943070 -39.527300  35.640100  75.275100  28.383400   0.005711  -0.002991   9.191710  -0.000724  -0.000719  35.919500   0.417871   0.579767  29.394400  -0.007517  -0.000797  20.576100  -0.002070   0.006747  28.767800  -1.192140  -2.167790  42.203900   0.013058   0.001478  28.107800  -0.000127   0.000625  29.614800  -3.571670  -6.250290  44.721700   0.001903   0.000305  29.784700   0.001304  -0.002545  40.700200  -4.707610  -5.447510  61.393400  -0.001224   0.001749  40.888000  -0.009407   0.001396   2.698490   5.483860   0.004730   0.568612   1.639840  10.781100  -2.048550  -0.747520  -1.375760  -0.000000   0.000000   0.000000   1.587280   3.441690  -0.570824  -1.347390   6.949830 -12.073900   0.521984  -9.679410  -0.772039  -0.000000   0.000000   0.000000
